<svg height="32" viewBox="0 0 32 32" width="32" xmlns="http://www.w3.org/2000/svg"><path d="m26 18a3.9955 3.9955 0 0 0 -3.858 3h-4.142a3.0033 3.0033 0 0 1 -3-3v-4a4.9514 4.9514 0 0 0 -1.0256-3h8.1676a4 4 0 1 0 0-2h-12.284a4 4 0 1 0 0 2h.142a3.0033 3.0033 0 0 1 3 3v4a5.0059 5.0059 0 0 0 5 5h4.142a3.9935 3.9935 0 1 0 3.858-5zm0-10a2 2 0 1 1 -2 2 2.0023 2.0023 0 0 1 2-2zm-20 4a2 2 0 1 1 2-2 2.002 2.002 0 0 1 -2 2zm20 12a2 2 0 1 1 2-2 2.0027 2.0027 0 0 1 -2 2z"/><path d="m0 0h32v32h-32z" fill="none"/></svg>